<svg width="31" height="31" viewBox="0 0 31 31" fill="none" xmlns="http://www.w3.org/2000/svg">
<path d="M21.0292 15.7553H5.89759L11.0363 20.1895C11.4154 20.5166 11.4154 21.0469 11.0363 21.3741C10.6571 21.7012 10.0424 21.7012 9.66325 21.3741L2.86734 15.5098C2.48823 15.1827 2.48823 14.6522 2.86734 14.3253L9.66325 8.46104C9.85281 8.29747 10.1013 8.21558 10.3499 8.21558C10.5982 8.21558 10.8467 8.29747 11.0363 8.46104C11.4154 8.78818 11.4154 9.31868 11.0363 9.64561L5.89759 14.0798H21.0292C21.5653 14.0798 22 14.4549 22 14.9175C22 15.3802 21.5653 15.7553 21.0292 15.7553Z" fill="#F5F5F7"/>
</svg>
