<svg width="44" height="30" viewBox="0 0 44 30" fill="none" xmlns="http://www.w3.org/2000/svg">
<rect opacity="0.5" x="0.5" y="0.5" width="43" height="29" rx="4.5" fill="#5D5D5D" stroke="black"/>
<path d="M15.4983 21.18C14.2143 21.18 13.0563 20.904 12.0243 20.352C10.9923 19.788 10.1823 19.014 9.59434 18.03C9.00634 17.034 8.71234 15.924 8.71234 14.7C8.71234 13.476 9.00634 12.372 9.59434 11.388C10.1823 10.392 10.9923 9.618 12.0243 9.066C13.0563 8.502 14.2143 8.22 15.4983 8.22C16.7823 8.22 17.9403 8.502 18.9723 9.066C20.0043 9.618 20.8143 10.386 21.4023 11.37C21.9903 12.354 22.2843 13.464 22.2843 14.7C22.2843 15.936 21.9903 17.046 21.4023 18.03C20.8143 19.014 20.0043 19.788 18.9723 20.352C17.9403 20.904 16.7823 21.18 15.4983 21.18ZM15.4983 19.128C16.3383 19.128 17.0943 18.942 17.7663 18.57C18.4383 18.186 18.9663 17.658 19.3503 16.986C19.7343 16.302 19.9263 15.54 19.9263 14.7C19.9263 13.86 19.7343 13.104 19.3503 12.432C18.9663 11.748 18.4383 11.22 17.7663 10.848C17.0943 10.464 16.3383 10.272 15.4983 10.272C14.6583 10.272 13.9023 10.464 13.2303 10.848C12.5583 11.22 12.0303 11.748 11.6463 12.432C11.2623 13.104 11.0703 13.86 11.0703 14.7C11.0703 15.54 11.2623 16.302 11.6463 16.986C12.0303 17.658 12.5583 18.186 13.2303 18.57C13.9023 18.942 14.6583 19.128 15.4983 19.128ZM29.5154 15.69H27.1754V21H24.8714V8.4H27.1754V13.674H29.5874L33.2054 8.4H35.6894L31.3874 14.502L35.8514 21H33.2054L29.5154 15.69Z" fill="#171717"/>
</svg>
