<svg width="195" height="68" viewBox="0 0 195 68" fill="none" xmlns="http://www.w3.org/2000/svg">
<rect width="195" height="68" rx="4" fill="#424245"/>
<path d="M44.4605 19.4206C43.8346 19.552 43.2868 19.865 42.9697 20.2694C42.811 20.4658 42.8086 20.7074 42.8861 24.4649L42.9289 26.4978C42.9517 27.5826 42.0944 28.4688 41.0093 28.482C39.5227 28.5001 39.0389 28.4883 39.0099 28.4297C38.9907 28.3946 38.6668 27.2498 38.3005 25.8934C37.7101 23.6973 37.6102 23.3863 37.3549 23.0654C37.0336 22.6687 36.5417 22.3684 35.8793 22.1703C35.4653 22.0457 35.3739 22.0409 31.9626 22.0648L28.7497 22.0876C28.5725 22.0889 28.4004 22.1417 28.2543 22.2396C27.9677 22.4316 27.9658 22.6908 28.2638 22.9051C28.4089 23.0105 28.5833 23.0671 28.7614 23.0665L31.8078 23.0564C35.5936 23.0456 35.5843 23.0399 35.9722 23.5359C36.133 23.7401 36.7201 25.8184 38.7364 33.3404C40.7005 40.6273 41.3589 42.9699 41.5404 43.2622C42.3341 44.5722 44.1911 45.4038 46.4832 45.4819C46.9305 45.4941 47.2781 45.5252 47.2603 45.5431C46.9605 45.912 46.7264 46.3508 46.6532 46.6698C46.4523 47.6443 47.368 48.7466 48.7578 49.1833C50.9114 49.8581 53.4378 49.1793 54.1908 47.7209C54.5455 47.0273 54.3649 46.1105 53.7664 45.5876C53.6965 45.5256 53.7378 45.4112 53.8305 45.4101L59.0055 45.3471C61.9969 45.3106 64.4324 45.2987 64.4148 45.3224C64.3974 45.3521 64.2478 45.5483 64.0988 45.7681C62.8866 47.4442 65.113 49.42 67.9996 49.2258C69.6023 49.1179 70.9146 48.4127 71.37 47.4057C71.4908 47.1568 71.5121 46.9385 71.4739 46.5502C71.434 46.1029 71.3757 45.9741 71.0921 45.6181C70.9565 45.4507 71.0689 45.2034 71.2827 45.199L72.8494 45.1667L74.6634 45.1292C74.8413 45.1256 75.0125 45.0649 75.1516 44.956C75.4283 44.7347 75.4211 44.4756 75.1241 44.2966C74.9788 44.2023 74.8093 44.1531 74.6373 44.1552L60.6921 44.325C45.2245 44.5134 45.7629 44.5186 44.7867 44.1888C43.9762 43.9159 43.0996 43.2315 42.8841 42.7039C42.8551 42.6263 42.9107 42.5444 42.9932 42.5433L57.1156 42.3538L70.9921 42.1677C71.2734 42.1639 71.5531 42.1305 71.8265 42.0679L72.0136 42.0251C73.2009 41.7456 74.1889 41.1857 74.7077 40.4901C75.2355 39.7885 75.2294 39.8946 75.0686 34.135C74.9288 29.1234 74.9121 28.8526 74.7415 28.6249C74.6466 28.4906 74.4229 28.3225 74.2566 28.2479C73.961 28.116 73.8605 28.1114 72.3735 28.1118C71.5067 28.1106 70.7949 28.1016 70.7944 28.0839C70.794 28.0721 71.3349 26.8579 71.9962 25.3829C72.6576 23.908 73.1968 22.6348 73.1945 22.5524C73.1881 22.3227 72.8022 21.8973 72.4792 21.7658C72.3223 21.7029 69.2308 21.0925 65.5992 20.418L59.3966 19.2633C59.1364 19.2149 58.8726 19.1922 58.6088 19.1956L51.8464 19.2836C47.9065 19.3315 44.5875 19.3955 44.4605 19.4206ZM45.9675 24.3862L46.0594 27.6783C46.0708 28.0884 45.7423 28.4223 45.3319 28.4176C44.9099 28.4129 44.5627 28.0739 44.5479 27.6523L44.4398 24.5638L44.3246 21.0364C44.3181 20.8379 44.4117 20.6509 44.5738 20.5386C44.8068 20.3885 44.9064 20.3637 45.3442 20.3584C45.6263 20.3549 45.8613 20.5807 45.8692 20.8627L45.9675 24.3862ZM56.436 20.2881C56.437 20.3234 56.2914 20.6669 56.1199 21.0578C55.9256 21.4887 55.4996 21.7664 55.024 21.7722L52.6465 21.8011L49.749 21.8364C49.5751 21.8385 49.4069 21.894 49.2672 21.9954C49.0616 22.1452 49.0534 22.1807 49.0533 23.1586C49.0481 24.278 49.0903 24.4836 49.3421 24.6809C49.5192 24.8142 49.5466 24.8139 51.9733 24.8138L52.5011 24.8137C53.4001 24.8135 54.0107 25.7453 53.646 26.5608C53.1685 27.6284 52.1154 28.3173 50.9387 28.3316L50.2745 28.3397C48.8361 28.3572 47.635 27.211 47.5851 25.7732L47.5356 24.3494C47.4638 22.1343 49.2071 20.3113 51.423 20.2843L51.9197 20.2783C55.0662 20.24 56.4347 20.241 56.436 20.2881ZM59.1355 20.2552C59.3646 20.2936 59.5761 20.35 59.5953 20.3851C59.6241 20.4378 58.552 22.8839 56.4036 27.6288C56.2199 28.0379 55.8159 28.3017 55.3647 28.3072L55.3278 28.3076C54.7259 28.3149 54.5612 28.2993 54.5594 28.2345C54.5581 28.1874 55.3299 26.4224 56.2744 24.3078C58.267 19.8652 58.1003 20.1029 59.1355 20.2552ZM66.6465 21.6601C68.1698 21.9446 69.5411 22.2015 70.4555 22.3738C71.2145 22.5167 71.4601 22.9702 71.1486 23.6692C70.9917 24.0214 70.8052 24.4373 70.6047 24.8814C70.0376 26.1373 69.4793 27.3812 69.359 27.6478C69.2282 27.9476 68.9342 28.1419 68.6051 28.1459L63.4446 28.2088C58.0547 28.2744 57.7444 28.2723 57.7872 28.1716C58.0069 27.6805 60.425 22.2954 61.0103 20.995C61.0953 20.8061 61.231 20.6543 61.4374 20.6867C61.5751 20.7145 63.9228 21.1513 66.6465 21.6601ZM55.3204 22.8113C55.3212 22.8407 55.218 23.0658 55.0974 23.3206C54.9595 23.6009 54.6754 23.7783 54.361 23.7804L52.7659 23.7909L51.1393 23.7971C50.8639 23.7981 50.6316 23.5852 50.6085 23.3105C50.5863 23.0485 50.7888 22.8252 51.0515 22.822L52.948 22.7989C54.2522 22.783 55.3197 22.7877 55.3204 22.8113ZM73.5054 34.3485L73.6134 39.1057C73.6207 39.4277 73.5229 39.7417 73.3347 40.0002C73.0184 40.4341 72.5616 40.7401 71.8927 40.9603C71.6172 41.0534 71.3282 41.1029 71.0361 41.1068L57.0039 41.2948L42.659 41.4812C42.5767 41.4822 42.5019 41.4312 42.4724 41.3539C42.452 41.2776 41.7398 38.6412 40.8948 35.4938C40.0497 32.3465 39.3376 29.71 39.3172 29.6337C39.2931 29.5707 39.3383 29.5038 39.4054 29.503L56.3224 29.297L69.3655 29.1381C71.5826 29.1111 73.427 30.8922 73.4773 33.1087L73.5054 34.3485ZM51.4398 45.5806C51.9455 45.7217 52.4563 46.0454 52.6657 46.3551C52.8748 46.6589 52.853 47.1834 52.6257 47.5397C52.189 48.2343 50.9222 48.609 49.8209 48.375C48.6093 48.1129 47.9492 47.3433 48.2741 46.5617C48.3849 46.2835 48.509 46.1524 48.8763 45.9123C49.1362 45.7441 49.4873 45.5749 49.6596 45.5375C50.2128 45.4188 50.9339 45.4336 51.4398 45.5806ZM68.5855 45.3718C69.3948 45.6035 69.9291 46.1154 69.9359 46.6867C69.9528 47.2933 69.5637 47.734 68.7783 48.0322C68.1551 48.2578 67.2346 48.2926 66.6545 48.0993C65.3378 47.6676 64.9177 46.6713 65.7258 45.8779C66.3299 45.2932 67.5553 45.0721 68.5855 45.3718Z" fill="#F5F5F7"/>
<path d="M61.6285 23.3528C61.4672 23.4572 61.3021 23.7546 60.9764 24.5059C60.4882 25.6449 60.4488 25.8684 60.7639 26.0453C60.9774 26.1753 66.8848 27.3269 67.2952 27.3219C67.806 27.3157 67.9122 27.1999 68.4435 25.9699C68.915 24.8853 68.94 24.8006 68.8082 24.6516C68.7327 24.5621 68.5287 24.444 68.3539 24.3919C67.8754 24.2471 62.3726 23.2112 62.0899 23.2146C61.9622 23.2162 61.7542 23.279 61.6285 23.3528ZM64.9619 24.7828C66.0623 24.9864 66.9983 25.1799 67.0447 25.2095C67.1374 25.2626 66.7796 26.171 66.6702 26.1723C66.6337 26.1728 66.0926 26.0709 65.4689 25.9519C64.845 25.8269 63.9003 25.6455 63.3685 25.5496C62.8365 25.4475 62.3776 25.3507 62.3313 25.3271C62.2942 25.3035 62.343 25.0919 62.4461 24.8617C62.6692 24.3587 62.6777 24.3345 62.843 24.3747C62.9074 24.392 63.8612 24.5732 64.9619 24.7828Z" fill="#F5F5F7"/>
<path d="M46.7356 29.1711C46.4701 29.357 46.4599 29.3969 46.4914 30.5245C46.5091 31.1605 46.0078 31.6823 45.3717 31.6901L42.972 31.7193L39.7448 31.7586C39.5268 31.7612 39.3163 31.8334 39.1441 31.9645C38.8013 32.207 38.7905 32.6282 39.1022 32.8865C39.2437 33.0077 39.4237 33.0739 39.6086 33.0729L42.9416 33.0542L43.868 33.0491C45.3584 33.0407 46.595 34.2364 46.6365 35.7261L46.6427 35.9464C46.6809 37.3159 45.6013 38.4396 44.2314 38.4563C41.1873 38.4934 40.9631 38.5438 40.982 39.2188C40.9859 39.3617 41.1033 39.5271 41.2758 39.6442C41.4552 39.771 41.6695 39.838 41.8876 39.8353L44.1564 39.8077L45.5977 39.7901C46.2338 39.7824 46.7639 40.2916 46.7817 40.9276C46.8131 42.0552 46.8255 42.0948 47.1012 42.2742C47.4463 42.5162 48.0443 42.5248 48.4104 42.3059C48.6657 42.1598 48.6755 42.104 48.6771 40.9522C48.6774 40.2843 49.2094 39.7461 49.8775 39.738L52.5109 39.7059L55.2606 39.6724C55.8529 39.6652 56.3464 40.1394 56.3629 40.7315C56.4019 42.1291 56.5549 42.3576 57.4343 42.3469C57.6373 42.3444 57.8718 42.2621 58.0376 42.141C58.3031 41.955 58.3133 41.9152 58.2818 40.7875C58.2641 40.1523 58.7662 39.6319 59.4017 39.6267L62.1174 39.6048L64.8214 39.5886C65.4645 39.5847 66.0031 40.0905 66.0399 40.7328C66.0917 41.7807 66.1174 41.8916 66.3475 42.0556C66.7043 42.3135 67.3353 42.2899 67.6885 42.0155C67.9425 41.8217 67.9518 41.7501 67.9553 40.6618C67.9563 40.0246 68.4642 39.5116 69.1016 39.5039L71.0014 39.4807L73.7099 39.4478C73.9279 39.4451 74.1384 39.373 74.3106 39.2418C74.609 39.0237 74.6651 38.61 74.4224 38.3984C74.0987 38.1164 73.8274 38.0959 70.8509 38.1321L70.6091 38.1351C69.1175 38.1532 67.8745 36.9591 67.8329 35.4679C67.7913 33.9767 68.9668 32.7532 70.4584 32.735L70.689 32.7322C74.2292 32.6891 74.4087 32.6551 74.3894 31.9642C74.3855 31.8213 74.2681 31.6559 74.0956 31.5388C73.9162 31.412 73.7019 31.345 73.4838 31.3477L70.7753 31.3807L68.8756 31.4038C68.2381 31.4116 67.702 30.9113 67.6654 30.2746C67.6012 29.1871 67.588 29.1158 67.3233 28.9283C66.978 28.6783 66.4364 28.669 66.0369 28.9043C65.7482 29.0667 65.7374 29.0827 65.747 30.2344C65.7463 30.8859 65.2293 31.4117 64.5777 31.4237L61.8904 31.473L59.1754 31.5172C58.5401 31.5276 58.0093 31.0197 57.9915 30.3845C57.9601 29.2568 57.9477 29.2173 57.672 29.0379C57.3616 28.8272 56.774 28.7867 56.4742 28.9572C56.1077 29.1602 56.0467 29.3993 56.0768 30.4793C56.0935 31.0758 55.6233 31.5652 55.0266 31.5725L52.2736 31.606L49.5126 31.6396C48.9203 31.6468 48.4268 31.1727 48.4103 30.5806C48.3713 29.183 48.2183 28.9544 47.3389 28.9652C47.1359 28.9676 46.9014 29.0499 46.7356 29.1711ZM56.22 35.6093C56.2616 37.1005 55.0861 38.3241 53.5945 38.3423L52.462 38.3561L51.3294 38.3698C49.8378 38.388 48.5948 37.1939 48.5532 35.7027C48.5116 34.2115 49.6871 32.988 51.1787 32.9698L52.3113 32.956L53.4438 32.9422C54.9354 32.9241 56.1784 34.1182 56.22 35.6093ZM65.9162 35.4913C65.9578 36.9824 64.7823 38.206 63.2907 38.2242L62.1018 38.2387L60.9129 38.2531C59.4213 38.2713 58.1783 37.0772 58.1367 35.586C58.0951 34.0948 59.2706 32.8713 60.7622 32.8531L61.9511 32.8386L63.14 32.8241C64.6316 32.806 65.8746 34.0001 65.9162 35.4913Z" fill="#F5F5F7"/>
<path d="M93.9737 34.92H90.8537V42H87.7817V25.2H90.8537V32.232H94.0697L98.8937 25.2H102.206L96.4697 33.336L102.422 42H98.8937L93.9737 34.92ZM116.135 29.184L110.135 43.032C109.575 44.424 108.895 45.4 108.095 45.96C107.295 46.536 106.327 46.824 105.191 46.824C104.551 46.824 103.919 46.72 103.295 46.512C102.671 46.304 102.159 46.016 101.759 45.648L102.959 43.44C103.247 43.712 103.583 43.928 103.967 44.088C104.367 44.248 104.767 44.328 105.167 44.328C105.695 44.328 106.127 44.192 106.463 43.92C106.815 43.648 107.135 43.192 107.423 42.552L107.639 42.048L102.047 29.184H105.167L109.199 38.664L113.255 29.184H116.135ZM130.507 29.184V42H127.531V31.728H121.219V42H118.219V29.184H130.507ZM134.555 29.184H137.555V37.632L144.635 29.184H147.371V42H144.371V33.552L137.315 42H134.555V29.184ZM161.559 31.728H157.071V42H154.071V31.728H149.559V29.184H161.559V31.728ZM163.735 29.184H166.735V37.632L173.815 29.184H176.551V42H173.551V33.552L166.495 42H163.735V29.184Z" fill="#F5F5F7"/>
</svg>
