<svg width="152" height="48" viewBox="0 0 152 48" fill="none" xmlns="http://www.w3.org/2000/svg">
<path d="M17.4605 10.4206C16.8346 10.552 16.2868 10.865 15.9697 11.2694C15.811 11.4658 15.8086 11.7074 15.8861 15.4649L15.9289 17.4978C15.9517 18.5826 15.0944 19.4688 14.0093 19.482V19.482C12.5227 19.5001 12.0389 19.4883 12.0099 19.4297C11.9907 19.3946 11.6668 18.2498 11.3005 16.8934C10.7101 14.6973 10.6102 14.3863 10.3549 14.0654C10.0336 13.6687 9.54172 13.3684 8.87932 13.1703C8.4653 13.0457 8.37394 13.0409 4.96255 13.0648L1.74967 13.0876C1.57253 13.0889 1.40041 13.1417 1.25431 13.2396V13.2396C0.96773 13.4316 0.965841 13.6908 1.26376 13.9051V13.9051C1.40891 14.0105 1.58333 14.0671 1.76138 14.0665L4.80776 14.0564C8.59356 14.0456 8.58428 14.0399 8.97217 14.5359C9.13296 14.7401 9.7201 16.8184 11.7364 24.3404C13.7005 31.6273 14.3589 33.9699 14.5404 34.2622C15.3341 35.5722 17.1911 36.4038 19.4832 36.4819C19.9305 36.4941 20.2781 36.5252 20.2603 36.5431C19.9605 36.912 19.7264 37.3508 19.6532 37.6698C19.4523 38.6443 20.368 39.7466 21.7578 40.1833C23.9114 40.8581 26.4378 40.1793 27.1908 38.7209C27.5455 38.0273 27.3649 37.1105 26.7664 36.5876V36.5876C26.6965 36.5256 26.7378 36.4112 26.8305 36.4101L32.0055 36.3471C34.9969 36.3106 37.4324 36.2987 37.4148 36.3224C37.3974 36.3521 37.2478 36.5483 37.0988 36.7681C35.8866 38.4442 38.113 40.42 40.9997 40.2258C42.6023 40.1179 43.9146 39.4127 44.37 38.4057C44.4908 38.1568 44.5121 37.9385 44.4739 37.5502C44.434 37.1029 44.3757 36.9741 44.0921 36.6181V36.6181C43.9565 36.4507 44.0689 36.2034 44.2827 36.199L45.8494 36.1667L47.6634 36.1292C47.8413 36.1256 48.0125 36.0649 48.1516 35.956V35.956C48.4283 35.7347 48.4211 35.4756 48.1241 35.2966V35.2966C47.9788 35.2023 47.8093 35.1531 47.6373 35.1552L33.6921 35.325C18.2245 35.5134 18.7629 35.5186 17.7867 35.1888C16.9762 34.9159 16.0996 34.2315 15.8841 33.7039V33.7039C15.8551 33.6263 15.9107 33.5444 15.9932 33.5433L30.1156 33.3538L43.9921 33.1677C44.2734 33.1639 44.5531 33.1305 44.8265 33.0679L45.0136 33.0251C46.2009 32.7456 47.1889 32.1857 47.7077 31.4901C48.2355 30.7885 48.2294 30.8946 48.0686 25.135C47.9288 20.1234 47.9121 19.8526 47.7415 19.6249C47.6466 19.4906 47.4229 19.3225 47.2566 19.2479C46.961 19.116 46.8605 19.1114 45.3735 19.1118C44.5067 19.1106 43.7949 19.1016 43.7944 19.0839C43.794 19.0721 44.3349 17.8579 44.9962 16.3829C45.6576 14.908 46.1968 13.6348 46.1945 13.5524C46.1881 13.3227 45.8022 12.8973 45.4792 12.7658C45.3223 12.7029 42.2308 12.0925 38.5992 11.418L32.3966 10.2633C32.1364 10.2149 31.8726 10.1922 31.6088 10.1956L24.8464 10.2836C20.9065 10.3315 17.5875 10.3955 17.4605 10.4206ZM18.9675 15.3862L19.0594 18.6783C19.0708 19.0884 18.7423 19.4223 18.3319 19.4176V19.4176V19.4176C17.9099 19.4129 17.5627 19.0739 17.5479 18.6523L17.4398 15.5638L17.3246 12.0364C17.3181 11.8379 17.4117 11.6509 17.5738 11.5386V11.5386C17.8068 11.3885 17.9064 11.3637 18.3442 11.3584V11.3584C18.6263 11.3549 18.8613 11.5807 18.8692 11.8627L18.9675 15.3862ZM29.436 11.2881C29.437 11.3234 29.2914 11.6669 29.1199 12.0578V12.0578C28.9256 12.4887 28.4996 12.7664 28.024 12.7722L25.6465 12.8011L22.749 12.8364C22.5751 12.8385 22.4069 12.894 22.2672 12.9954V12.9954C22.0616 13.1452 22.0534 13.1807 22.0533 14.1586C22.0481 15.278 22.0903 15.4836 22.3421 15.6809C22.5192 15.8142 22.5466 15.8139 24.9733 15.8138L25.5011 15.8137C26.4001 15.8135 27.0107 16.7453 26.646 17.5608V17.5608V17.5608C26.1685 18.6284 25.1154 19.3173 23.9387 19.3316L23.2745 19.3397V19.3397C21.8361 19.3572 20.635 18.211 20.5851 16.7732L20.5356 15.3494V15.3494C20.4638 13.1343 22.2071 11.3113 24.423 11.2843L24.9197 11.2783C28.0662 11.24 29.4347 11.241 29.436 11.2881ZM32.1355 11.2552C32.3646 11.2936 32.5761 11.35 32.5953 11.3851C32.6241 11.4378 31.552 13.8839 29.4036 18.6288V18.6288C29.2199 19.0379 28.8159 19.3017 28.3647 19.3072L28.3278 19.3076C27.7259 19.3149 27.5612 19.2993 27.5594 19.2345C27.5581 19.1874 28.3299 17.4224 29.2744 15.3078C31.267 10.8652 31.1003 11.1029 32.1355 11.2552ZM39.6466 12.6601C41.1698 12.9446 42.5411 13.2015 43.4555 13.3738C44.2145 13.5167 44.4601 13.9702 44.1486 14.6692C43.9917 15.0214 43.8052 15.4373 43.6047 15.8814C43.0376 17.1373 42.4793 18.3812 42.359 18.6478V18.6478C42.2282 18.9476 41.9342 19.1419 41.6051 19.1459L36.4446 19.2088C31.0547 19.2744 30.7444 19.2723 30.7872 19.1716C31.0069 18.6805 33.425 13.2954 34.0103 11.995C34.0953 11.8061 34.231 11.6543 34.4374 11.6867V11.6867C34.5751 11.7145 36.9228 12.1513 39.6466 12.6601ZM28.3204 13.8113C28.3212 13.8407 28.218 14.0658 28.0974 14.3206V14.3206C27.9595 14.6009 27.6754 14.7783 27.361 14.7804L25.7659 14.7909L24.1393 14.7971C23.8639 14.7981 23.6316 14.5852 23.6085 14.3105V14.3105V14.3105C23.5863 14.0485 23.7888 13.8252 24.0515 13.822L25.948 13.7989C27.2522 13.783 28.3197 13.7877 28.3204 13.8113ZM46.5054 25.3485L46.6134 30.1057C46.6207 30.4277 46.5229 30.7417 46.3347 31.0002V31.0002C46.0184 31.4341 45.5616 31.7401 44.8927 31.9603V31.9603C44.6172 32.0534 44.3282 32.1029 44.0361 32.1068L30.0039 32.2948L15.659 32.4812C15.5767 32.4822 15.5019 32.4312 15.4724 32.3539V32.3539C15.452 32.2776 14.7398 29.6412 13.8948 26.4938C13.0497 23.3465 12.3376 20.71 12.3172 20.6337V20.6337C12.2931 20.5707 12.3383 20.5038 12.4054 20.503L29.3224 20.297L42.3655 20.1381C44.5826 20.1111 46.427 21.8922 46.4773 24.1087L46.5054 25.3485ZM24.4398 36.5806C24.9455 36.7217 25.4563 37.0454 25.6657 37.3551C25.8748 37.6589 25.853 38.1834 25.6257 38.5397C25.189 39.2343 23.9222 39.609 22.8209 39.375C21.6093 39.1129 20.9492 38.3433 21.2741 37.5617C21.3849 37.2835 21.509 37.1524 21.8763 36.9123C22.1362 36.7441 22.4873 36.5749 22.6596 36.5375C23.2128 36.4188 23.9339 36.4336 24.4398 36.5806ZM41.5855 36.3718C42.3948 36.6035 42.9291 37.1154 42.9359 37.6867C42.9528 38.2933 42.5637 38.734 41.7783 39.0322C41.1551 39.2578 40.2346 39.2926 39.6545 39.0993C38.3378 38.6676 37.9177 37.6713 38.7258 36.8779C39.3299 36.2932 40.5553 36.0721 41.5855 36.3718Z" fill="#F5F5F7"/>
<path d="M34.6285 14.3528C34.4672 14.4572 34.3021 14.7546 33.9764 15.5059C33.4882 16.6449 33.4488 16.8684 33.7639 17.0453C33.9774 17.1753 39.8848 18.3269 40.2952 18.3219C40.806 18.3157 40.9122 18.1999 41.4435 16.9699C41.915 15.8853 41.94 15.8006 41.8082 15.6516C41.7327 15.5621 41.5287 15.444 41.3539 15.3919C40.8754 15.2471 35.3726 14.2112 35.0899 14.2146C34.9622 14.2162 34.7542 14.279 34.6285 14.3528ZM37.9619 15.7828C39.0623 15.9864 39.9983 16.1799 40.0447 16.2095C40.1374 16.2626 39.7796 17.171 39.6702 17.1723C39.6337 17.1728 39.0926 17.0709 38.4689 16.9519C37.845 16.8269 36.9003 16.6455 36.3685 16.5496C35.8365 16.4475 35.3776 16.3507 35.3313 16.3271C35.2942 16.3035 35.343 16.0919 35.4461 15.8617C35.6692 15.3587 35.6777 15.3345 35.843 15.3747C35.9074 15.392 36.8612 15.5732 37.9619 15.7828Z" fill="#F5F5F7"/>
<path d="M19.7356 20.1711C19.4701 20.357 19.4599 20.3969 19.4914 21.5245V21.5245C19.5091 22.1605 19.0078 22.6823 18.3717 22.6901L15.972 22.7193L12.7448 22.7586C12.5268 22.7612 12.3163 22.8334 12.1441 22.9645V22.9645C11.8013 23.207 11.7905 23.6282 12.1022 23.8865V23.8865C12.2437 24.0077 12.4237 24.0739 12.6086 24.0729L15.9416 24.0542L16.868 24.049C18.3584 24.0407 19.595 25.2364 19.6365 26.7261V26.7261L19.6427 26.9464C19.6809 28.3159 18.6013 29.4396 17.2314 29.4563V29.4563C14.1873 29.4934 13.9631 29.5438 13.982 30.2188C13.9859 30.3617 14.1033 30.5271 14.2758 30.6442V30.6442C14.4552 30.771 14.6695 30.838 14.8876 30.8353L17.1564 30.8077L18.5977 30.7901C19.2338 30.7824 19.7639 31.2916 19.7817 31.9276V31.9276C19.8131 33.0552 19.8255 33.0948 20.1012 33.2742C20.4463 33.5162 21.0443 33.5248 21.4104 33.3059C21.6657 33.1598 21.6755 33.104 21.6771 31.9522V31.9522C21.6774 31.2843 22.2094 30.7461 22.8775 30.738L25.5109 30.7059L28.2606 30.6724C28.8529 30.6652 29.3464 31.1394 29.3629 31.7315V31.7315C29.4019 33.1291 29.5549 33.3576 30.4343 33.3469C30.6373 33.3444 30.8718 33.2621 31.0376 33.141C31.3031 32.955 31.3133 32.9152 31.2818 31.7875V31.7875C31.2641 31.1523 31.7662 30.6319 32.4017 30.6267L35.1174 30.6048L37.8214 30.5886C38.4645 30.5847 39.0031 31.0905 39.0399 31.7328V31.7328C39.0917 32.7807 39.1174 32.8916 39.3475 33.0556C39.7043 33.3135 40.3353 33.2899 40.6885 33.0155C40.9425 32.8217 40.9518 32.7501 40.9553 31.6618V31.6618C40.9563 31.0246 41.4642 30.5116 42.1016 30.5039L44.0014 30.4807L46.7099 30.4478C46.9279 30.4451 47.1384 30.373 47.3106 30.2418V30.2418C47.609 30.0237 47.6651 29.61 47.4224 29.3984C47.0987 29.1164 46.8274 29.0959 43.8509 29.1321L43.6091 29.1351C42.1175 29.1532 40.8745 27.9591 40.8329 26.4679V26.4679V26.4679C40.7913 24.9767 41.9668 23.7532 43.4584 23.735L43.689 23.7322C47.2292 23.6891 47.4087 23.6551 47.3894 22.9642C47.3855 22.8213 47.2681 22.6559 47.0956 22.5388V22.5388C46.9162 22.412 46.7019 22.345 46.4838 22.3477L43.7753 22.3807L41.8756 22.4038C41.2381 22.4116 40.702 21.9113 40.6654 21.2746V21.2746C40.6012 20.1871 40.588 20.1158 40.3233 19.9283C39.978 19.6783 39.4364 19.669 39.0369 19.9043C38.7482 20.0667 38.7374 20.0827 38.747 21.2344V21.2344C38.7463 21.8859 38.2293 22.4117 37.5777 22.4237L34.8904 22.473L32.1754 22.5172C31.5401 22.5276 31.0093 22.0197 30.9915 21.3845V21.3845C30.9601 20.2568 30.9477 20.2173 30.672 20.0379C30.3616 19.8272 29.774 19.7867 29.4742 19.9572C29.1077 20.1602 29.0467 20.3993 29.0768 21.4793V21.4793C29.0935 22.0758 28.6233 22.5652 28.0266 22.5725L25.2736 22.606L22.5126 22.6396C21.9203 22.6468 21.4268 22.1727 21.4103 21.5806V21.5806C21.3713 20.183 21.2183 19.9544 20.3389 19.9652C20.1359 19.9676 19.9014 20.0499 19.7356 20.1711ZM29.22 26.6093V26.6093C29.2616 28.1005 28.0861 29.3241 26.5945 29.3423L25.462 29.3561L24.3294 29.3698C22.8378 29.388 21.5948 28.1939 21.5532 26.7027V26.7027V26.7027C21.5116 25.2115 22.6871 23.988 24.1787 23.9698L25.3113 23.956L26.4438 23.9422C27.9354 23.9241 29.1784 25.1182 29.22 26.6093V26.6093ZM38.9162 26.4913V26.4913C38.9578 27.9824 37.7823 29.206 36.2907 29.2242L35.1018 29.2387L33.9129 29.2531C32.4213 29.2713 31.1783 28.0772 31.1367 26.586V26.586V26.586C31.0951 25.0948 32.2706 23.8713 33.7622 23.8531L34.9511 23.8386L36.14 23.8241C37.6316 23.806 38.8746 25.0001 38.9162 26.4913V26.4913Z" fill="#F5F5F7"/>
<path d="M66.9737 25.92H63.8537V33H60.7817V16.2H63.8537V23.232H67.0697L71.8937 16.2H75.2057L69.4697 24.336L75.4217 33H71.8937L66.9737 25.92ZM89.1354 20.184L83.1354 34.032C82.5754 35.424 81.8954 36.4 81.0954 36.96C80.2954 37.536 79.3274 37.824 78.1914 37.824C77.5514 37.824 76.9194 37.72 76.2954 37.512C75.6714 37.304 75.1594 37.016 74.7594 36.648L75.9594 34.44C76.2474 34.712 76.5834 34.928 76.9674 35.088C77.3674 35.248 77.7674 35.328 78.1674 35.328C78.6954 35.328 79.1274 35.192 79.4634 34.92C79.8154 34.648 80.1354 34.192 80.4234 33.552L80.6394 33.048L75.0474 20.184H78.1674L82.1994 29.664L86.2554 20.184H89.1354ZM103.507 20.184V33H100.531V22.728H94.2191V33H91.2191V20.184H103.507ZM107.555 20.184H110.555V28.632L117.635 20.184H120.371V33H117.371V24.552L110.315 33H107.555V20.184ZM134.559 22.728H130.071V33H127.071V22.728H122.559V20.184H134.559V22.728ZM136.735 20.184H139.735V28.632L146.815 20.184H149.551V33H146.551V24.552L139.495 33H136.735V20.184Z" fill="#F5F5F7"/>
</svg>
