<svg width="72" height="72" viewBox="0 0 72 72" fill="none" xmlns="http://www.w3.org/2000/svg">
<circle cx="36" cy="36" r="36" fill="#37C6F3" fill-opacity="0.7"/>
<circle cx="36" cy="36" r="36" fill="#FF00E5" fill-opacity="0.35"/>
<path d="M23.784 17.5104C23.0339 17.6728 22.3775 18.06 21.9977 18.5605C21.8075 18.8035 21.8049 19.1025 21.9006 23.7537L22.0045 28.6965L19.654 28.7254C17.872 28.7473 17.292 28.7325 17.2572 28.66C17.2341 28.6166 16.845 27.1994 16.4049 25.5203C15.6954 22.8018 15.5754 22.4168 15.2692 22.0195C14.8838 21.5284 14.2939 21.1564 13.4997 20.911C13.0033 20.7566 12.8938 20.7507 8.80444 20.7791L4.62767 20.8086L4.3594 20.9942C4.01601 21.2317 4.01395 21.5526 4.37124 21.818L4.63926 22.0189L8.61965 22.0064C13.1578 21.9944 13.1467 21.9873 13.612 22.6014C13.8049 22.8542 14.5103 25.4269 16.9331 34.7384C19.2932 43.7588 20.0842 46.6587 20.302 47.0206C21.2545 48.6423 23.4812 49.6723 26.2288 49.7698C26.7651 49.7851 27.1817 49.8237 27.1605 49.8458C26.8013 50.3024 26.521 50.8454 26.4335 51.2403C26.1934 52.4464 27.292 53.8111 28.9583 54.3521C31.5404 55.1882 34.5684 54.3488 35.47 52.5439C35.8946 51.6855 35.6773 50.5506 34.9595 49.9031L34.7239 49.6872L41.2396 49.6071C44.8254 49.5631 47.7449 49.5491 47.7239 49.5785C47.703 49.6152 47.5238 49.858 47.3454 50.13C45.8936 52.2043 48.564 54.6508 52.0241 54.4113C53.9452 54.2783 55.5178 53.4058 56.0629 52.1595C56.2075 51.8514 56.2329 51.5813 56.1868 51.1006C56.1386 50.547 56.0686 50.3874 55.7283 49.9468L55.3316 49.4412L57.8345 49.3886L60.3374 49.3359L60.5942 49.1286C60.9256 48.8547 60.9167 48.534 60.5607 48.3123L60.2932 48.1333L43.2606 48.3426C24.7193 48.5706 25.3647 48.5772 24.1942 48.1687C23.2224 47.8306 22.171 46.983 21.9124 46.3299L21.8413 46.1339L38.9718 45.9015L56.1131 45.6689L56.8302 45.4996C58.2533 45.154 59.4371 44.4613 60.0586 43.6005C60.6907 42.7322 60.6834 42.8636 60.4863 35.7343C60.3148 29.5309 60.2946 29.1957 60.09 28.9138C59.976 28.7475 59.7078 28.5393 59.5084 28.447C59.1539 28.2836 59.0335 28.2778 57.2509 28.2778C56.2119 28.276 55.3586 28.2646 55.358 28.2427C55.3576 28.2282 56.005 26.7253 56.7966 24.8999C57.5882 23.0744 58.2336 21.4987 58.2308 21.3966C58.2229 21.1123 57.76 20.5857 57.3727 20.4227C57.1847 20.3448 53.4783 19.5883 49.1245 18.7521L41.2193 17.2305L32.6376 17.3432C27.9148 17.4013 23.9363 17.4794 23.784 17.5104ZM25.5944 23.6573L25.7326 28.658L24.8356 28.6471L23.9276 28.6364L23.7632 23.8767L23.6097 19.1168L23.9207 18.8942C24.1999 18.7085 24.3193 18.6779 24.8441 18.6714L25.4563 18.6639L25.5944 23.6573ZM38.1401 18.5882C38.1413 18.6319 37.9671 19.057 37.7618 19.5408L37.3813 20.4132L33.5987 20.4597L29.8051 20.5064L29.548 20.6991C29.3016 20.8845 29.2919 20.9283 29.2925 22.1388C29.2871 23.5244 29.3379 23.779 29.6399 24.0232C29.8523 24.1883 29.885 24.1879 32.7941 24.1886L35.7359 24.1889L34.8005 26.3516L33.8651 28.5142L30.7603 28.5524L27.6446 28.5907L27.4741 23.6123L27.3148 18.641L32.7263 18.5745C36.498 18.5281 38.1385 18.5299 38.1401 18.5882ZM41.3761 18.5484C41.6508 18.5961 41.9043 18.6659 41.9273 18.7093C41.9619 18.7745 40.6786 21.802 38.107 27.6745L37.7471 28.503L36.8179 28.5144C36.0963 28.5233 35.8989 28.5038 35.8967 28.4236C35.8951 28.3653 36.819 26.1809 37.9496 23.5637C40.3347 18.0653 40.1351 18.3595 41.3761 18.5484ZM50.3809 20.2899C53.6463 20.9206 56.3292 21.4419 56.3403 21.449C56.3512 21.4489 55.8069 22.7244 55.1281 24.2787C54.4493 25.8329 53.781 27.3725 53.637 27.7024L53.3804 28.3108L46.5477 28.3948C40.0866 28.4742 39.7147 28.4715 39.766 28.3469C40.0641 27.6578 43.7449 19.1829 43.7759 19.1169C43.818 19.058 43.9271 19.0494 44.1358 19.0833C44.3008 19.1177 47.1154 19.6592 50.3809 20.2899ZM36.8047 21.711C36.8057 21.7475 36.6822 22.0261 36.5378 22.3414L36.2691 22.9062L33.7433 22.9227L31.2064 22.932L31.1569 22.3274L31.1076 21.73L33.9609 21.6949C35.5242 21.6757 36.8039 21.6819 36.8047 21.711ZM58.6126 35.998L58.7596 42.5008L58.4123 42.9936C58.0335 43.5306 57.4862 43.9092 56.6844 44.1816L56.1862 44.3554L38.8371 44.5905L21.4769 44.8185L21.4178 44.6588C21.3933 44.5643 20.5376 41.3007 19.5221 37.4046C18.5067 33.5085 17.651 30.2449 17.6265 30.1504L17.5674 29.9907L38.0109 29.7394L58.4654 29.488L58.6126 35.998ZM32.1705 49.8936C32.7769 50.0685 33.3894 50.4693 33.6406 50.8527C33.8916 51.2288 33.8658 51.8781 33.5937 52.319C33.0706 53.1786 31.5524 53.6421 30.232 53.352C28.7795 53.0272 27.9876 52.0743 28.3764 51.107C28.5091 50.7627 28.6577 50.6004 29.0979 50.3033C29.4093 50.0953 29.83 49.8859 30.0365 49.8397C30.6995 49.693 31.564 49.7115 32.1705 49.8936ZM52.7234 49.641C53.6937 49.928 54.3346 50.5619 54.3432 51.2691C54.364 52.0199 53.8979 52.5653 52.9566 52.9342C52.2097 53.2132 51.1064 53.2559 50.4108 53.0165C48.8321 52.4817 48.3278 51.2482 49.2958 50.2665C50.0195 49.543 51.4883 49.2697 52.7234 49.641Z" fill="black"/>
<path d="M44.3629 22.2665C44.1695 22.3928 43.9717 22.7526 43.5812 23.6616C42.996 25.0397 42.9488 25.3101 43.3265 25.5242C43.5824 25.6815 50.6638 27.0747 51.1557 27.0687C51.7679 27.0612 51.8953 26.9211 52.5322 25.4329C53.0974 24.1207 53.1274 24.0182 52.9693 23.8379C52.8788 23.7296 52.6342 23.5868 52.4247 23.5237C51.8512 23.3485 45.2549 22.0951 44.916 22.0993C44.7629 22.1011 44.5135 22.1771 44.3629 22.2665ZM48.3586 23.9966C49.6778 24.2429 50.7997 24.4771 50.8554 24.5129C50.9665 24.5771 50.5376 25.6762 50.4064 25.6778C50.3627 25.6784 49.714 25.5551 48.9664 25.4111C48.2186 25.2599 47.0861 25.0405 46.4486 24.9243C45.8109 24.8009 45.2608 24.6837 45.2054 24.6552C45.1608 24.6266 45.2194 24.3707 45.3429 24.0921C45.6104 23.4835 45.6205 23.4542 45.8187 23.5028C45.8959 23.5238 47.0393 23.7431 48.3586 23.9966Z" fill="black"/>
<path d="M26.5104 29.3061C26.1921 29.531 26.1799 29.5792 26.2176 30.9436L26.2562 32.3368L21.9989 32.3891L17.7281 32.4416L17.4104 32.6858C16.9994 32.9792 16.9864 33.4888 17.3601 33.8014L17.6232 34.0288L21.9624 34.0043L26.3016 33.9798L26.3916 37.237L26.4819 40.5037L23.5086 40.5403C19.8595 40.5851 19.5908 40.6461 19.6134 41.4628C19.6182 41.6358 19.7589 41.8359 19.9656 41.9775L20.2966 42.2137L23.4186 42.1753L26.5271 42.1371L26.5656 43.5303C26.6033 44.8947 26.6182 44.9425 26.9487 45.1596C27.3624 45.4524 28.0792 45.4628 28.518 45.1979C28.8241 45.0212 28.8357 44.9537 28.8378 43.5601L28.8382 42.1087L33.4334 42.0522L38.015 41.9959L38.0509 43.293C38.0976 44.9841 38.281 45.2605 39.3352 45.2476C39.5785 45.2446 39.8596 45.145 40.0584 44.9984C40.3766 44.7734 40.3888 44.7252 40.3511 43.3609L40.3126 41.9677L44.9488 41.9299L49.5718 41.9019L49.6509 43.2946C49.713 44.5626 49.7437 44.6967 50.0196 44.8952C50.4473 45.2071 51.2037 45.1786 51.6271 44.8466C51.9316 44.6122 51.9427 44.5255 51.9469 43.2087L51.9492 41.8246L55.5983 41.7798L59.2473 41.7349L59.5651 41.4907C59.9228 41.2268 59.9901 40.7262 59.6991 40.4703C59.3111 40.129 58.9859 40.1042 55.4179 40.1481L51.8905 40.1914L51.8002 36.9246L51.7098 33.6579L55.2238 33.6147C59.4676 33.5625 59.6827 33.5214 59.6596 32.6855C59.6548 32.5125 59.5141 32.3124 59.3074 32.1708L58.9764 31.9346L55.3273 31.9794L51.6782 32.0243L51.5994 30.6412C51.5225 29.3254 51.5066 29.2391 51.1893 29.0123C50.7754 28.7098 50.1261 28.6986 49.6473 28.9832C49.3012 29.1797 49.2882 29.1991 49.2997 30.5926L49.2982 32.0055L44.6768 32.0911L40.0416 32.1673L40.0031 30.7742C39.9654 29.4098 39.9506 29.3619 39.6201 29.1449C39.248 28.89 38.5436 28.841 38.1843 29.0472C37.7449 29.2929 37.6718 29.5822 37.7079 30.8889L37.7441 32.1956L33.1489 32.2521L28.5537 32.3085L28.5179 31.0114C28.4711 29.3204 28.2877 29.0439 27.2335 29.0569C26.9903 29.0599 26.7091 29.1594 26.5104 29.3061ZM37.8795 37.0957L37.9698 40.3625L33.3747 40.419L28.7795 40.4755L28.6892 37.2087L28.5989 33.9419L33.1941 33.8855L37.7892 33.829L37.8795 37.0957ZM49.5026 36.9529L49.5929 40.2197L44.9302 40.277L40.2674 40.3343L40.1771 37.0675L40.0868 33.8007L44.7495 33.7434L49.4123 33.6861L49.5026 36.9529Z" fill="black"/>
</svg>
