<svg width="47" height="46" viewBox="0 0 47 46" fill="none" xmlns="http://www.w3.org/2000/svg">
<g filter="url(#filter0_d_270_484)">
<path d="M16.226 1.00102C15.6107 1.19651 15.0722 1.66243 14.7604 2.26447C14.6043 2.55672 14.602 2.91629 14.6781 8.50949L14.7608 14.4533L12.833 14.4889C11.3715 14.5158 10.8957 14.4983 10.8672 14.4111C10.8483 14.3589 10.5299 12.6548 10.1698 10.6358C9.58929 7.36689 9.49107 6.90395 9.24009 6.42628C8.92424 5.83582 8.44061 5.38875 7.78937 5.09384C7.38233 4.90843 7.2925 4.90132 3.93855 4.93685L0.512876 4.97371L0.292754 5.19699C0.0109965 5.48279 0.00913907 5.86866 0.302044 6.18771L0.521764 6.42919L3.78637 6.41284C7.50842 6.39683 7.4993 6.38823 7.88066 7.12656C8.03874 7.43056 8.61599 10.5241 10.5983 21.7206C12.5294 32.5673 13.1766 36.0542 13.3551 36.4893C14.1355 38.4392 15.9612 39.677 18.2147 39.7933C18.6545 39.8115 18.9962 39.8578 18.9788 39.8845C18.6839 40.4336 18.4538 41.0867 18.3818 41.5616C18.1843 43.0121 19.0846 44.6528 20.451 45.3029C22.5684 46.3073 25.0522 45.2969 25.7926 43.1261C26.1413 42.0937 25.9637 40.729 25.3753 39.9507L25.1821 39.6912L30.5261 39.5926C33.4671 39.5384 35.8617 39.5206 35.8444 39.556C35.8273 39.6001 35.6802 39.8922 35.5337 40.2194C34.3419 42.7142 36.5309 45.6553 39.3689 45.3662C40.9445 45.2056 42.2347 44.1558 42.6825 42.6569C42.8012 42.2864 42.8222 41.9615 42.7846 41.3835C42.7454 40.7178 42.6881 40.5259 42.4092 39.9961L42.0841 39.3883L44.1369 39.3241L46.1898 39.26L46.4004 39.0106C46.6724 38.6811 46.6653 38.2954 46.3734 38.0289L46.1541 37.8138L32.1844 38.0713C16.9772 38.3517 17.5066 38.3595 16.5467 37.8686C15.7499 37.4624 14.888 36.4435 14.6762 35.6582L14.6181 35.4226L28.668 35.1372L42.727 34.8517L43.3152 34.6479C44.4826 34.2318 45.4539 33.3983 45.964 32.363C46.4829 31.3187 46.4768 31.4766 46.3188 22.9035C46.1813 15.4436 46.1649 15.0406 45.9972 14.7017C45.9038 14.5017 45.684 14.2515 45.5205 14.1405C45.2298 13.9441 45.131 13.9372 43.669 13.9378C42.8169 13.936 42.117 13.9226 42.1165 13.8963C42.1162 13.8788 42.648 12.0713 43.2982 9.87588C43.9483 7.68042 44.4785 5.78532 44.4762 5.6626C44.4699 5.32072 44.0905 4.68758 43.773 4.49175C43.6188 4.39814 40.5793 3.48959 37.0089 2.48561L30.5261 0.658433L23.4876 0.79698C19.614 0.8684 16.3509 0.963643 16.226 1.00102ZM17.7077 8.39225L17.8185 14.4057L17.0828 14.393L16.3381 14.3804L16.2057 8.6567L16.0822 2.93284L16.3374 2.66507C16.5665 2.44162 16.6645 2.40474 17.0949 2.3968L17.597 2.38755L17.7077 8.39225ZM27.9999 2.29219C28.0009 2.34479 27.8578 2.85603 27.6891 3.43789L27.3766 4.48716L24.2742 4.54436L21.1628 4.60173L20.9518 4.83361C20.7496 5.05657 20.7416 5.10933 20.7416 6.56498C20.7364 8.23117 20.7779 8.53732 21.0255 8.8309C21.1996 9.02938 21.2265 9.02888 23.6124 9.02874L26.0252 9.02809L25.2569 11.6291L24.4886 14.2301L21.9421 14.2771L19.3867 14.3242L19.2494 8.33751L19.1213 2.35944L23.5597 2.2776C26.6531 2.22057 27.9986 2.22207 27.9999 2.29219ZM30.654 2.24326C30.8793 2.30049 31.0871 2.38434 31.106 2.43661C31.1344 2.51501 30.0803 6.15603 27.9681 13.2189L27.6725 14.2153L26.9104 14.2293C26.3186 14.2402 26.1567 14.2169 26.1549 14.1205C26.1536 14.0503 26.9124 11.4232 27.8411 8.27556C29.8001 1.66271 29.6362 2.01649 30.654 2.24326ZM38.0385 4.33442C40.7165 5.09179 42.9165 5.71766 42.9257 5.72626C42.9346 5.7261 42.4875 7.26014 41.93 9.12944C41.3725 10.9987 40.8236 12.8503 40.7053 13.2471L40.4946 13.9788L34.8905 14.0822C29.5913 14.1799 29.2863 14.1767 29.3284 14.0269C29.5732 13.1981 32.5965 3.00542 32.6219 2.92603C32.6565 2.85524 32.746 2.84482 32.9171 2.88551C33.0525 2.92686 35.3606 3.57705 38.0385 4.33442ZM26.9031 6.048C26.9039 6.09183 26.8024 6.42692 26.6838 6.80617L26.4632 7.48545L24.3916 7.50611L22.3109 7.51817L22.2706 6.79108L22.2304 6.07277L24.5707 6.02962C25.8529 6.00598 26.9024 6.01293 26.9031 6.048ZM44.7819 23.2212L44.8991 31.041L44.6141 31.6337C44.3031 32.2796 43.854 32.7351 43.1963 33.0629L42.7876 33.2721L28.5583 33.5608L14.3198 33.8409L14.2714 33.6488C14.2514 33.5352 13.5512 29.6109 12.7204 24.926C11.8896 20.2412 11.1894 16.3168 11.1693 16.2032L11.121 16.0112L27.8883 15.702L44.6645 15.3927L44.7819 23.2212ZM23.0878 39.9402C23.585 40.1503 24.0872 40.6321 24.2931 41.0931C24.4987 41.5453 24.4772 42.3261 24.2538 42.8563C23.8244 43.8902 22.5789 44.4481 21.4962 44.0998C20.305 43.7096 19.656 42.5641 19.9754 41.4007C20.0844 40.9865 20.2064 40.7913 20.5675 40.4339C20.823 40.1837 21.1682 39.9318 21.3376 39.8761C21.8815 39.6994 22.5905 39.7214 23.0878 39.9402ZM39.9448 39.6294C40.7405 39.9743 41.2658 40.7363 41.2725 41.5867C41.2891 42.4896 40.9066 43.1456 40.1344 43.5895C39.5217 43.9253 38.6167 43.977 38.0463 43.6894C36.7519 43.0468 36.3388 41.5637 37.1333 40.3828C37.7272 39.5125 38.932 39.1833 39.9448 39.6294Z" fill="#F5F5F7"/>
<path d="M33.105 6.85409C32.9464 7.00953 32.7841 7.45211 32.4639 8.57044C31.9839 10.2659 31.9452 10.5985 32.255 10.862C32.4648 11.0554 38.2728 12.7695 38.6763 12.7621C39.1784 12.7528 39.2829 12.5804 39.8052 10.7497C40.2688 9.13526 40.2934 9.00921 40.1637 8.78732C40.0895 8.65412 39.889 8.47839 39.7171 8.40082C39.2467 8.18521 33.8366 6.64324 33.5586 6.64836C33.4331 6.65068 33.2285 6.74416 33.105 6.85409ZM36.3822 8.98264C37.4641 9.28566 38.3843 9.57371 38.43 9.61772C38.5211 9.69678 38.1693 11.049 38.0617 11.0509C38.0259 11.0516 37.4939 10.8999 36.8807 10.7228C36.2673 10.5368 35.3385 10.2668 34.8156 10.124C34.2926 9.97212 33.8415 9.82792 33.796 9.79288C33.7594 9.75767 33.8074 9.44279 33.9088 9.10002C34.1282 8.35136 34.1365 8.31532 34.299 8.37512C34.3623 8.40087 35.3001 8.67066 36.3822 8.98264Z" fill="#F5F5F7"/>
<path d="M18.4628 15.5147C18.2017 15.7915 18.1917 15.8508 18.2227 17.5293L18.2543 19.2433L14.7625 19.3077L11.2597 19.3723L10.9991 19.6727C10.6621 20.0337 10.6514 20.6606 10.9579 21.0451L11.1738 21.3249L14.7326 21.2948L18.2915 21.2646L18.3654 25.2718L18.4394 29.2908L16.0008 29.3358C13.0079 29.391 12.7875 29.466 12.806 30.4707C12.8099 30.6835 12.9254 30.9297 13.0949 31.1039L13.3664 31.3945L15.927 31.3473L18.4765 31.3003L18.5081 33.0143C18.539 34.6928 18.5512 34.7517 18.8222 35.0187C19.1615 35.379 19.7495 35.3918 20.1094 35.0659C20.3604 34.8484 20.37 34.7655 20.3716 33.0509L20.372 31.2654L24.1408 31.1959L27.8986 31.1266L27.928 32.7224C27.9663 34.8028 28.1168 35.1429 28.9814 35.127C29.1809 35.1233 29.4115 35.0008 29.5745 34.8204C29.8355 34.5437 29.8455 34.4843 29.8146 32.8058L29.783 31.0918L33.5855 31.0454L37.3772 31.0109L37.442 32.7243C37.493 34.2842 37.5182 34.4493 37.7445 34.6934C38.0953 35.0772 38.7156 35.0421 39.0629 34.6337C39.3126 34.3453 39.3218 34.2387 39.3252 32.6186L39.327 30.9159L42.3199 30.8607L45.3128 30.8055L45.5734 30.5051C45.8668 30.1804 45.922 29.5645 45.6834 29.2496C45.3651 28.8298 45.0984 28.7993 42.1721 28.8532L39.2789 28.9066L39.2048 24.8876L39.1308 20.8686L42.0128 20.8154C45.4935 20.7513 45.6699 20.7007 45.651 19.6723C45.6471 19.4596 45.5316 19.2134 45.3621 19.0391L45.0906 18.7485L42.0977 18.8037L39.1048 18.8589L39.0402 17.1573C38.9771 15.5385 38.964 15.4323 38.7039 15.1534C38.3643 14.7812 37.8318 14.7674 37.4391 15.1175C37.1552 15.3593 37.1446 15.3831 37.154 17.0975L37.1528 18.8357L33.3624 18.9411L29.5608 19.0349L29.5292 17.3209C29.4982 15.6424 29.4861 15.5835 29.215 15.3165C28.9099 15.0028 28.3321 14.9426 28.0374 15.1963C27.6771 15.4986 27.6171 15.8544 27.6467 17.462L27.6764 19.0696L23.9075 19.1391L20.1387 19.2086L20.1093 17.6128C20.0709 15.5324 19.9205 15.1922 19.0559 15.2082C18.8564 15.2119 18.6258 15.3344 18.4628 15.5147ZM27.7875 25.0981L27.8615 29.1171L24.0927 29.1866L20.3239 29.2561L20.2498 25.2371L20.1757 21.2181L23.9446 21.1486L27.7134 21.0791L27.7875 25.0981ZM37.3204 24.9223L37.3945 28.9413L33.5702 29.0118L29.746 29.0823L29.6719 25.0633L29.5978 21.0444L33.4221 20.9738L37.2463 20.9033L37.3204 24.9223Z" fill="#F5F5F7"/>
</g>
<defs>
<filter id="filter0_d_270_484" x="-3.91821" y="0.658447" width="54.5168" height="53.0344" filterUnits="userSpaceOnUse" color-interpolation-filters="sRGB">
<feFlood flood-opacity="0" result="BackgroundImageFix"/>
<feColorMatrix in="SourceAlpha" type="matrix" values="0 0 0 0 0 0 0 0 0 0 0 0 0 0 0 0 0 0 127 0" result="hardAlpha"/>
<feOffset dy="4"/>
<feGaussianBlur stdDeviation="2"/>
<feComposite in2="hardAlpha" operator="out"/>
<feColorMatrix type="matrix" values="0 0 0 0 0 0 0 0 0 0 0 0 0 0 0 0 0 0 0.25 0"/>
<feBlend mode="normal" in2="BackgroundImageFix" result="effect1_dropShadow_270_484"/>
<feBlend mode="normal" in="SourceGraphic" in2="effect1_dropShadow_270_484" result="shape"/>
</filter>
</defs>
</svg>
