<svg width="36" height="34" viewBox="0 0 36 34" fill="none" xmlns="http://www.w3.org/2000/svg">
<path d="M12.1809 0.597348C11.7191 0.739274 11.3148 1.07752 11.0807 1.5146C10.9635 1.72677 10.9618 1.98782 11.019 6.04842L11.081 10.3636L9.63385 10.3894C8.53669 10.4089 8.17958 10.3962 8.15818 10.3329C8.14399 10.295 7.90494 9.05785 7.63461 7.59209C7.19885 5.21891 7.12511 4.88281 6.9367 4.53603C6.6996 4.10736 6.33655 3.78279 5.84767 3.56869C5.54211 3.43409 5.47467 3.42892 2.95691 3.45472L0.385296 3.48148L0.220053 3.64358C0.00854127 3.85107 0.0071469 4.1312 0.227027 4.36283L0.391968 4.53814L2.84266 4.52628C5.63677 4.51465 5.62991 4.50841 5.91619 5.04443C6.03487 5.26513 6.4682 7.51103 7.95631 15.6396C9.40592 23.5141 9.89183 26.0456 10.0258 26.3615C10.6116 27.7771 11.9821 28.6757 13.6738 28.7602C14.004 28.7734 14.2605 28.807 14.2474 28.8263C14.0261 29.225 13.8533 29.6992 13.7993 30.0439C13.651 31.097 14.3268 32.2881 15.3526 32.76C16.9421 33.4893 18.8067 32.7557 19.3624 31.1797C19.6242 30.4302 19.4909 29.4395 19.0492 28.8744L18.9042 28.686L22.9159 28.6145C25.1236 28.5751 26.9212 28.5621 26.9082 28.5878C26.8954 28.6199 26.7849 28.8319 26.675 29.0695C25.7803 30.8807 27.4235 33.0159 29.554 32.806C30.7368 32.6894 31.7054 31.9273 32.0415 30.8391C32.1306 30.5701 32.1463 30.3343 32.1181 29.9146C32.0887 29.4313 32.0457 29.292 31.8363 28.9074L31.5923 28.4661L33.1333 28.4195L34.6743 28.373L34.8325 28.1919C35.0367 27.9527 35.0313 27.6727 34.8122 27.4792L34.6476 27.323L24.1607 27.51C12.7449 27.7136 13.1422 27.7192 12.4217 27.3628C11.8236 27.0679 11.1765 26.3283 11.0175 25.7581L10.9739 25.587L21.521 25.3799L32.0749 25.1726L32.5165 25.0246C33.3928 24.7225 34.1219 24.1175 34.5049 23.3658C34.8944 22.6076 34.8899 22.7223 34.7712 16.4983C34.668 11.0825 34.6557 10.7899 34.5298 10.5439C34.4597 10.3987 34.2947 10.217 34.1719 10.1365C33.9537 9.99392 33.8796 9.98888 32.7821 9.98935C32.1424 9.98802 31.617 9.97829 31.6166 9.9592C31.6164 9.94647 32.0156 8.63429 32.5037 7.04041C32.9917 5.44652 33.3897 4.0707 33.388 3.9816C33.3833 3.73341 33.0985 3.27375 32.8601 3.13158C32.7443 3.06362 30.4626 2.40403 27.7824 1.67515L22.9158 0.348632L17.6321 0.449216C14.7243 0.501066 12.2747 0.570212 12.1809 0.597348ZM13.2932 5.9633L13.3764 10.329L12.8241 10.3198L12.2651 10.3106L12.1657 6.15529L12.073 1.99983L12.2646 1.80543C12.4365 1.64321 12.5101 1.61643 12.8332 1.61067L13.2101 1.60395L13.2932 5.9633ZM21.0194 1.53473C21.0202 1.57291 20.9128 1.94406 20.7862 2.36649L20.5515 3.12825L18.2226 3.16978L15.887 3.21142L15.7286 3.37977C15.5768 3.54163 15.5708 3.57993 15.5707 4.63672C15.5668 5.84636 15.598 6.06862 15.7839 6.28176C15.9145 6.42585 15.9347 6.42549 17.7258 6.42539L19.537 6.42492L18.9603 8.31323L18.3836 10.2015L16.472 10.2356L14.5536 10.2698L14.4506 5.92356L14.3544 1.58355L17.6863 1.52413C20.0085 1.48273 21.0185 1.48381 21.0194 1.53473ZM23.0118 1.4992C23.1809 1.54075 23.337 1.60163 23.3512 1.63957C23.3724 1.69649 22.5812 4.33983 20.9956 9.46741L20.7737 10.1907L20.2015 10.2009C19.7573 10.2089 19.6358 10.1919 19.6344 10.1219C19.6335 10.071 20.2031 8.16374 20.9002 5.87859C22.3709 1.07773 22.2478 1.33457 23.0118 1.4992ZM28.5553 3.01736C30.5656 3.5672 32.2172 4.02158 32.224 4.02782C32.2308 4.0277 31.8951 5.1414 31.4766 6.4985C31.0581 7.85559 30.646 9.19983 30.5572 9.48789L30.399 10.0191L26.1922 10.0941C22.2141 10.1651 21.9851 10.1628 22.0167 10.054C22.2005 9.45229 24.47 2.05252 24.4891 1.99488C24.5151 1.94349 24.5823 1.93593 24.7108 1.96547C24.8123 1.99549 26.5451 2.46752 28.5553 3.01736ZM20.1961 4.2614C20.1967 4.29322 20.1205 4.53649 20.0315 4.81183L19.8658 5.30498L18.3107 5.31997L16.7488 5.32873L16.7185 4.80087L16.6884 4.27938L18.4452 4.24806C19.4077 4.23089 20.1956 4.23594 20.1961 4.2614ZM33.6175 16.729L33.7055 22.406L33.4915 22.8364C33.258 23.3053 32.9209 23.636 32.4272 23.8739L32.1204 24.0258L21.4386 24.2354L10.75 24.4387L10.7137 24.2993C10.6986 24.2168 10.173 21.3678 9.54932 17.9666C8.92564 14.5655 8.40001 11.7165 8.38497 11.634L8.34865 11.4946L20.9357 11.2701L33.5294 11.0455L33.6175 16.729ZM17.332 28.8668C17.7053 29.0193 18.0823 29.3691 18.2368 29.7038C18.3912 30.032 18.375 30.5989 18.2073 30.9839C17.8849 31.7345 16.95 32.1395 16.1372 31.8866C15.243 31.6033 14.7558 30.7717 14.9956 29.9271C15.0774 29.6264 15.1689 29.4847 15.4401 29.2252C15.6319 29.0436 15.891 28.8607 16.0181 28.8202C16.4264 28.692 16.9587 28.708 17.332 28.8668ZM29.9863 28.6412C30.5836 28.8915 30.978 29.4447 30.983 30.0622C30.9955 30.7176 30.7083 31.1939 30.1287 31.5161C29.6687 31.7599 28.9894 31.7975 28.5612 31.5887C27.5894 31.1222 27.2794 30.0454 27.8758 29.1881C28.3216 28.5563 29.226 28.3173 29.9863 28.6412Z" fill="#0071E3"/>
<path d="M24.8509 4.8472C24.7318 4.96004 24.61 5.28135 24.3696 6.09326C24.0093 7.32413 23.9802 7.56563 24.2128 7.75688C24.3704 7.89736 28.7303 9.14176 29.0332 9.13636C29.4101 9.12963 29.4886 9.00449 29.8807 7.67535C30.2287 6.50331 30.2471 6.4118 30.1498 6.25071C30.0941 6.15401 29.9435 6.02643 29.8145 5.97011C29.4614 5.81358 25.4001 4.69412 25.1914 4.69784C25.0972 4.69952 24.9436 4.76739 24.8509 4.8472ZM27.3111 6.39251C28.1233 6.6125 28.814 6.82162 28.8483 6.85358C28.9167 6.91097 28.6526 7.89264 28.5719 7.89408C28.5449 7.89456 28.1456 7.78445 27.6853 7.65588C27.2248 7.5208 26.5276 7.32482 26.1351 7.2211C25.7424 7.11086 25.4038 7.00618 25.3696 6.98074C25.3422 6.95517 25.3782 6.72658 25.4543 6.47772C25.619 5.9342 25.6252 5.90804 25.7473 5.95146C25.7948 5.97015 26.4988 6.16601 27.3111 6.39251Z" fill="#0071E3"/>
<path d="M13.8602 11.1349C13.6643 11.3359 13.6568 11.3789 13.68 12.5975L13.7037 13.8419L11.0825 13.8886L8.45303 13.9355L8.25741 14.1536C8.00435 14.4156 7.99638 14.8708 8.22645 15.1499L8.38848 15.3531L11.0601 15.3312L13.7317 15.3093L13.7871 18.2185L13.8427 21.1362L12.0121 21.1689C9.76534 21.2089 9.5999 21.2634 9.6138 21.9928C9.61674 22.1473 9.70339 22.326 9.83066 22.4525L10.0345 22.6635L11.9567 22.6292L13.8705 22.5951L13.8943 23.8394C13.9175 25.058 13.9266 25.1008 14.1301 25.2946C14.3848 25.5562 14.8262 25.5655 15.0963 25.3289C15.2848 25.171 15.292 25.1108 15.2932 23.866L15.2935 22.5697L18.1227 22.5193L20.9436 22.469L20.9657 23.6275C20.9945 25.1379 21.1074 25.3848 21.7564 25.3732C21.9062 25.3705 22.0793 25.2816 22.2017 25.1507C22.3976 24.9497 22.4051 24.9067 22.3819 23.6881L22.3582 22.4438L25.2127 22.41L28.0591 22.385L28.1077 23.6289C28.146 24.7614 28.1649 24.8812 28.3348 25.0585C28.5981 25.3371 29.0638 25.3116 29.3245 25.0151C29.512 24.8057 29.5188 24.7283 29.5214 23.5522L29.5228 22.316L31.7695 22.2759L34.0163 22.2359L34.2119 22.0178C34.4321 21.7821 34.4736 21.3349 34.2944 21.1063C34.0555 20.8016 33.8553 20.7794 31.6585 20.8185L29.4867 20.8573L29.4311 17.9395L29.3755 15.0218L31.539 14.9832C34.1518 14.9366 34.2843 14.8999 34.2701 14.1533C34.2672 13.9988 34.1805 13.8201 34.0532 13.6936L33.8494 13.4826L31.6027 13.5227L29.356 13.5628L29.3075 12.3275C29.2601 11.1522 29.2503 11.0751 29.055 10.8726C28.8001 10.6024 28.4004 10.5924 28.1055 10.8466C27.8925 11.0221 27.8845 11.0394 27.8915 12.284L27.8906 13.546L25.0452 13.6225L22.1914 13.6905L22.1677 12.4462C22.1444 11.2276 22.1353 11.1848 21.9318 10.991C21.7027 10.7633 21.2691 10.7195 21.0478 10.9038C20.7773 11.1232 20.7323 11.3815 20.7545 12.5486L20.7768 13.7157L17.9476 13.7662L15.1183 13.8166L15.0963 12.6581C15.0675 11.1478 14.9546 10.9008 14.3055 10.9124C14.1557 10.9151 13.9826 11.004 13.8602 11.1349ZM20.8602 18.0924L20.9158 21.0101L18.0866 21.0606L15.2574 21.111L15.2017 18.1933L15.1461 15.2755L17.9754 15.2251L20.8046 15.1746L20.8602 18.0924ZM28.0164 17.9647L28.0721 20.8825L25.2012 20.9337L22.3304 20.9849L22.2748 18.0671L22.2192 15.1494L25.09 15.0982L27.9608 15.047L28.0164 17.9647Z" fill="#0071E3"/>
</svg>
