<svg width="72" height="72" viewBox="0 0 72 72" fill="none" xmlns="http://www.w3.org/2000/svg">
<circle cx="36" cy="36" r="36" fill="#37C6F3" fill-opacity="0.7"/>
<circle cx="36" cy="36" r="36" fill="#FF00E5" fill-opacity="0.35"/>
<path d="M27.2618 13.0763C24.7293 13.3587 22.334 14.0489 20.0126 15.1574C9.5451 20.1877 5.87302 32.0887 11.9087 41.4276L12.3625 42.1178L10.7797 47.0226C9.91442 49.7103 9.20744 52.0528 9.20744 52.2097C9.20744 52.9731 9.99883 53.747 10.7902 53.747C11.1173 53.747 13.0589 52.8163 18.4404 50.0868L20.8673 48.8527L21.817 49.2188C22.9672 49.658 24.761 50.1286 25.985 50.3064C26.8608 50.4319 26.8925 50.4528 27.5362 51.0384C29.3511 52.7012 30.8389 53.7156 32.9598 54.7405C38.3097 57.3027 44.5986 57.5641 50.3072 55.4516L51.1619 55.1379L55.8998 57.5328C58.9704 59.0805 60.7959 59.959 61.0808 59.9904C61.9249 60.0949 62.8113 59.3315 62.8113 58.4949C62.8113 58.338 62.1043 56.0059 61.239 53.3078L59.6563 48.403L60.11 47.7024C63.5921 42.3584 63.9509 35.6653 61.0597 30.039C58.2317 24.5591 52.4282 20.491 46.0654 19.5497C45.6116 19.4765 45.1895 19.3929 45.1262 19.3615C45.0524 19.3197 44.5564 18.8909 44.0077 18.3994C42.4988 17.0608 41.2009 16.1823 39.3332 15.2725C37.0646 14.1535 35.6189 13.6829 33.2131 13.275C31.7464 13.0136 28.6758 12.9194 27.2618 13.0763ZM31.5564 16.2137C32.8543 16.3496 34.3105 16.6634 35.5345 17.0503C36.5897 17.3954 38.7001 18.3785 39.597 18.9536L40.1668 19.3197L39.7553 19.3929C36.8746 19.8426 35.0913 20.3759 32.9493 21.3903C23.3365 25.9813 19.2845 36.4706 23.5897 45.6212C23.8535 46.1755 24.0224 46.6357 23.9696 46.6357C23.9063 46.6357 23.2626 46.4056 22.5345 46.1128C21.7115 45.7886 21.0467 45.5899 20.7829 45.5899C20.4452 45.5899 19.6855 45.935 16.9526 47.3154C15.0743 48.2671 13.5232 49.041 13.5021 49.041C13.4704 49.041 13.9453 47.5246 14.5573 45.6631C15.1587 43.812 15.6547 42.1074 15.6652 41.8773C15.6758 41.3858 15.6019 41.2185 14.7789 40.0158C13.6498 38.3739 12.8795 36.6065 12.4574 34.6823C12.1514 33.2705 12.1303 30.541 12.4047 29.1396C13.6604 22.9067 18.8625 17.9497 25.6263 16.5274C27.5889 16.1091 29.636 16.0045 31.5564 16.2137ZM44.4298 22.4884C46.7829 22.7394 48.6928 23.3041 50.8348 24.3604C55.4355 26.6297 58.6644 30.7083 59.614 35.4353C59.8673 36.6798 59.8673 39.4511 59.614 40.706C59.2025 42.7349 58.2423 44.9415 57.0394 46.5938C56.7123 47.0435 56.4063 47.5769 56.364 47.7651C56.2691 48.2043 56.3218 48.403 57.567 52.2515C58.1157 53.9353 58.5483 55.3157 58.5272 55.3157C58.5061 55.3157 56.955 54.5418 55.0767 53.5901C52.3016 52.1888 51.584 51.8646 51.2253 51.8646C50.9509 51.8646 50.36 52.0424 49.653 52.3247C44.0816 54.5836 37.7293 54.1026 32.6855 51.028C30.9655 49.9822 29.1506 48.3298 27.916 46.667C26.7025 45.0461 25.6896 42.7558 25.278 40.706C25.0248 39.4302 25.0248 36.6902 25.278 35.4143C26.3965 29.8717 30.7017 25.2284 36.4842 23.3355C39.0061 22.5093 41.8446 22.206 44.4298 22.4884Z" fill="black"/>
<path d="M35.7829 37.1902C35.3513 37.4135 35 38.0122 35 38.4993C35 39.0066 35.3513 39.585 35.803 39.8184C36.5558 40.204 37.3788 39.9605 37.7903 39.2299C38.0613 38.7327 38.0714 38.3065 37.8104 37.7889C37.439 37.0482 36.5357 36.7844 35.7829 37.1902Z" fill="black"/>
<path d="M41.7829 37.1902C41.3513 37.4135 41 38.0122 41 38.4993C41 39.0066 41.3513 39.585 41.803 39.8184C42.5558 40.204 43.3788 39.9605 43.7903 39.2299C44.0613 38.7327 44.0714 38.3065 43.8104 37.7889C43.439 37.0482 42.5357 36.7844 41.7829 37.1902Z" fill="black"/>
<path d="M47.78 37.1991C47.35 37.4209 47 38.0156 47 38.4994C47 39.0034 47.35 39.5779 47.8 39.8097C48.29 40.0617 48.7 40.0617 49.18 39.8198C49.61 39.5981 50 38.9731 50 38.4994C50 38.0257 49.61 37.4007 49.18 37.179C48.71 36.9371 48.25 36.9371 47.78 37.1991Z" fill="black"/>
</svg>
