<svg width="34" height="34" viewBox="0 0 34 34" fill="none" xmlns="http://www.w3.org/2000/svg">
<g clip-path="url(#clip0_44_174)">
<path d="M3.2539 0.10627C1.71328 0.43166 0.424997 1.73986 0.0996063 3.28713C-0.0464874 3.9844 -0.0464874 30.0156 0.0996063 30.7129C0.35195 31.9082 1.18203 32.9973 2.26445 33.5285C3.2539 34.0133 2.93515 34 10.6516 34H17.5445L17.8035 33.8539C17.9695 33.761 18.109 33.6082 18.1953 33.4356C18.3281 33.1633 18.3281 33.0571 18.3148 26.8082C18.2949 20.4731 18.2949 20.4598 18.1555 20.2739C18.0758 20.1742 17.9164 20.0281 17.7902 19.9551C17.5844 19.8289 17.425 19.8223 15.6586 19.8024L13.7461 19.7824V18.3547V16.9336H15.6984C18.5141 16.9336 18.3281 17.1528 18.3281 13.8457C18.3281 11.2227 18.368 10.9172 18.773 10.0938C19.1051 9.40979 19.8355 8.67932 20.5195 8.34729C21.3164 7.95549 21.6883 7.90236 23.8598 7.90236H25.7656V9.3301V10.7578H23.9395C21.9473 10.7578 21.8344 10.7778 21.5023 11.1297C21.4027 11.236 21.2898 11.4086 21.2566 11.5082C21.2102 11.6278 21.1836 12.511 21.1836 13.9321C21.1836 16.4289 21.1902 16.4821 21.6418 16.7809C21.8609 16.9336 21.9008 16.9336 23.8133 16.9336H25.7656V18.3547V19.7824L23.8598 19.8024C22.0867 19.8223 21.9273 19.8289 21.7215 19.9551C21.5953 20.0281 21.4359 20.1742 21.3562 20.2739C21.2168 20.4598 21.2168 20.4731 21.1969 26.8414L21.1836 33.2164L21.323 33.4688C21.4027 33.6082 21.5754 33.7809 21.7148 33.8606C21.9605 34 22.0137 34 26.1043 34C30.766 34 30.7859 33.9934 31.7355 33.5285C32.818 32.9973 33.648 31.9082 33.9004 30.7129C34.0465 30.0156 34.0465 3.9844 33.9004 3.28713C33.575 1.71994 32.2801 0.425018 30.7129 0.0996284C30.0355 -0.0398254 3.91797 -0.0398254 3.2539 0.10627ZM30.2148 2.05861C31.1379 2.23127 31.7687 2.86213 31.9414 3.77854C32.0344 4.26994 32.0344 29.7301 31.9414 30.2215C31.7687 31.1379 31.1379 31.7688 30.2148 31.9414C30.009 31.9813 28.475 32.0078 26.5227 32.0078H23.1758V26.9344V21.8543L25.1215 21.8344C27.3461 21.8145 27.3992 21.8012 27.6781 21.25C27.8309 20.9512 27.8309 20.9446 27.8109 18.2817L27.791 15.6188L27.5852 15.3598C27.4723 15.2203 27.2797 15.0742 27.1535 15.0278C27.0008 14.9746 26.3234 14.9481 25.0551 14.9481L23.1758 14.9414V13.8457V12.75H25.1082C27.273 12.75 27.366 12.7367 27.6383 12.2918C27.791 12.0528 27.791 12.0461 27.791 9.31682C27.791 6.64729 27.791 6.58088 27.6516 6.39494C27.5785 6.29533 27.4125 6.1426 27.2863 6.05627L27.0605 5.90354L24.1719 5.92346L21.2832 5.95002L20.6988 6.12932C18.5672 6.79338 17.1395 8.24104 16.5152 10.3926C16.3957 10.8043 16.3758 11.0899 16.3492 12.8961L16.3227 14.9414H14.4367C12.3184 14.9414 12.232 14.9547 11.9133 15.3797L11.7207 15.6254L11.7008 18.2883C11.6742 22.0535 11.4883 21.8012 14.3969 21.8344L16.3359 21.8543V26.9344V32.0078H10.2332C6.375 32.0078 4.00429 31.9813 3.77851 31.9414C2.86211 31.7688 2.23125 31.1379 2.05859 30.2149C1.96562 29.7301 1.96562 4.2633 2.05859 3.77854C2.23125 2.88869 2.86875 2.23127 3.73203 2.06525C4.15039 1.97893 29.7832 1.97893 30.2148 2.05861Z" fill="#BDBDBD"/>
</g>
<defs>
<clipPath id="clip0_44_174">
<rect width="34" height="34" fill="white"/>
</clipPath>
</defs>
</svg>
