<svg width="34" height="34" viewBox="0 0 34 34" fill="none" xmlns="http://www.w3.org/2000/svg">
<g clip-path="url(#clip0_44_165)">
<path d="M7.30635 0.0991058C5.40049 0.384651 3.89307 1.14169 2.51846 2.51629C1.104 3.93075 0.333692 5.51122 0.0747071 7.49676C-0.0249024 8.27372 -0.0249024 25.7253 0.0747071 26.5022C0.333692 28.4878 1.104 30.0682 2.51846 31.4827C3.93291 32.8972 5.51338 33.6675 7.49893 33.9265C8.27588 34.0261 25.7274 34.0261 26.5044 33.9265C28.49 33.6675 30.0704 32.8972 31.4849 31.4827C32.8993 30.0682 33.6696 28.4878 33.9286 26.5022C34.0282 25.7253 34.0282 8.27372 33.9286 7.49676C33.6696 5.51122 32.8993 3.93075 31.4849 2.51629C30.0704 1.10184 28.49 0.331528 26.5044 0.0725441C25.6544 -0.0403481 8.05674 -0.0137863 7.30635 0.0991058ZM27.2083 3.10067C27.9587 3.35965 28.1247 3.44598 28.7423 3.87098C29.7251 4.54832 30.5021 5.60419 30.8939 6.79286L31.113 7.4702V16.9995C31.113 26.1171 31.1064 26.5487 30.9868 26.9272C30.5419 28.3682 29.7716 29.4374 28.636 30.2077C28.1446 30.5397 27.7196 30.7323 27.029 30.9515L26.531 31.1108H17.0017H7.47237L6.79502 30.8917C4.93565 30.2807 3.63408 28.9194 3.0165 26.9272C2.89697 26.5487 2.89033 26.1171 2.89033 16.9995C2.89033 7.88192 2.89697 7.45028 3.0165 7.07176C3.48799 5.5577 4.31143 4.45536 5.53994 3.68504C6.05791 3.35965 6.94776 3.01434 7.49893 2.92137C7.66494 2.89481 12.0345 2.87489 17.2009 2.88153L26.5974 2.88817L27.2083 3.10067Z" fill="#BDBDBD"/>
<path d="M25.7672 5.73701C25.2957 5.84326 25.0234 5.98935 24.7047 6.31474C24.273 6.75967 24.1402 7.11162 24.1402 7.80224C24.1402 8.32021 24.1668 8.44638 24.3195 8.73193C24.6848 9.42256 25.3023 9.82764 26.0726 9.88076C26.6371 9.91396 26.9359 9.83428 27.4074 9.51553C28.7289 8.62568 28.5762 6.60029 27.1418 5.91631C26.6504 5.68388 26.2586 5.63076 25.7672 5.73701Z" fill="#BDBDBD"/>
<path d="M15.9125 8.57255C12.7051 9.01747 9.96913 11.2487 8.97304 14.2503C8.63437 15.2729 8.5414 15.864 8.5414 16.9995C8.5414 18.135 8.63437 18.7261 8.97304 19.7554C9.77655 22.1593 11.8484 24.2245 14.2656 25.0347C15.275 25.3667 15.8726 25.4597 17.0016 25.4597C18.1305 25.4597 18.7281 25.3667 19.7375 25.0347C22.1547 24.2245 24.2266 22.1593 25.0301 19.7554C25.3687 18.7261 25.4617 18.135 25.4617 16.9995C25.4617 15.512 25.1762 14.2968 24.532 13.0815C23.3035 10.7772 21.1918 9.19013 18.6285 8.66552C17.991 8.53271 16.5434 8.47958 15.9125 8.57255ZM18.7082 11.614C19.4187 11.8464 19.6113 11.9393 20.1559 12.3046C21.2715 13.055 22.0219 14.0975 22.4535 15.4722C22.5863 15.9038 22.6129 16.1097 22.6129 16.9995C22.6129 18.0952 22.5332 18.5003 22.1414 19.3702C21.65 20.4858 20.4879 21.6479 19.3656 22.146C18.5023 22.5311 18.0973 22.6108 17.0016 22.6108C15.9059 22.6108 15.5008 22.5311 14.6375 22.146C13.5152 21.6479 12.3531 20.4858 11.8617 19.3702C11.4699 18.5003 11.3902 18.0952 11.3902 16.9995C11.3902 16.1097 11.4168 15.9038 11.5496 15.4722C11.7754 14.755 11.9746 14.3366 12.3531 13.7854C13.1035 12.6964 14.1527 11.946 15.441 11.5675C16.0984 11.3749 16.198 11.3616 17.2008 11.3882C17.991 11.4081 18.1703 11.4347 18.7082 11.614Z" fill="#BDBDBD"/>
</g>
<defs>
<clipPath id="clip0_44_165">
<rect width="34" height="34" fill="white"/>
</clipPath>
</defs>
</svg>
