<svg width="25" height="18" viewBox="0 0 25 18" fill="none" xmlns="http://www.w3.org/2000/svg">
<path d="M23.9583 9.68376H1.04167C0.466665 9.68376 0 9.24573 0 8.70601C0 8.1663 0.466665 7.72827 1.04167 7.72827H23.9583C24.5333 7.72827 25 8.1663 25 8.70601C25 9.24573 24.5333 9.68376 23.9583 9.68376Z" fill="#F5F5F7"/>
<path d="M23.9583 2.09635H1.04167C0.466665 2.09635 0 1.65833 0 1.11861C0 0.578895 0.466665 0.140869 1.04167 0.140869H23.9583C24.5333 0.140869 25 0.578895 25 1.11861C25 1.65833 24.5333 2.09635 23.9583 2.09635Z" fill="#F5F5F7"/>
<path d="M23.9583 17.2709H1.04167C0.466665 17.2709 0 16.8329 0 16.2932C0 15.7535 0.466665 15.3154 1.04167 15.3154H23.9583C24.5333 15.3154 25 15.7535 25 16.2932C25 16.8329 24.5333 17.2709 23.9583 17.2709Z" fill="#F5F5F7"/>
</svg>
