<svg width="34" height="34" viewBox="0 0 34 34" fill="none" xmlns="http://www.w3.org/2000/svg">
<path d="M31.4102 2.35077C31.2109 2.43709 30.3609 2.84881 29.5176 3.26717C28.6809 3.68553 27.8043 4.11717 27.5785 4.21678L27.1602 4.40272L26.702 4.19686C24.1121 3.04139 20.9113 3.62577 18.8395 5.63788C17.2125 7.2117 16.3359 9.23709 16.223 11.6742L16.1832 12.5574L15.8777 12.5176C11.1164 11.8867 7.15195 9.18397 4.73477 4.91405C4.41602 4.36287 4.19023 4.1703 3.7918 4.13045C3.3668 4.09061 3.10781 4.19686 2.85547 4.51561C2.56992 4.8742 2.14492 5.691 1.95898 6.24217C1.77305 6.78671 1.59375 7.89569 1.59375 8.47342C1.60039 9.31014 1.87266 10.5785 2.21797 11.3355C2.31758 11.5414 2.37734 11.7207 2.36406 11.734C2.35078 11.7539 2.07852 11.6875 1.77305 11.5945C1.10234 11.3887 0.843359 11.382 0.53125 11.548C0.285547 11.6742 0 12.1324 0 12.3914C0 12.4777 0.0597656 12.8098 0.132812 13.1285C0.710547 15.5922 2.13828 17.4914 4.36289 18.7598L4.86094 19.0453L4.50898 19.1449C4.30977 19.2047 4.01758 19.2844 3.8582 19.3242C3.45977 19.4305 3.30703 19.5433 3.13437 19.8488C2.78242 20.4797 3.02812 20.9445 4.24336 21.9074C5.59141 22.9765 7.21836 23.7933 9.08437 24.3312C9.49609 24.4508 9.83477 24.5703 9.83477 24.5969C9.83477 24.6832 9.1043 25.1613 8.50664 25.4668C7.77617 25.8387 6.89961 26.1242 5.95 26.3035C5.35234 26.4164 4.87422 26.4496 3.41992 26.4762C1.37461 26.5094 1.16875 26.5426 0.896484 26.9476C0.697266 27.2398 0.677344 27.6582 0.836719 27.9969C0.95625 28.2492 1.53398 28.7273 2.17148 29.1125C3.91133 30.1551 7.50391 31.2043 10.5918 31.5695C15.041 32.1008 19.2512 31.616 22.5117 30.1949C24.3645 29.3848 25.7523 28.4285 27.2066 26.9543C30.082 24.0191 31.7555 20.7187 32.3863 16.7344C32.5523 15.6652 32.5523 13.0156 32.3797 11.7672L32.2602 10.8906L33.077 9.58905C33.5219 8.87186 33.9137 8.18788 33.9535 8.06834C34.0996 7.59022 33.834 7.07889 33.3293 6.87967C33.0969 6.78671 32.9641 6.78006 32.393 6.83983C32.0277 6.87303 31.6094 6.90623 31.4699 6.90623H31.2109L32.041 5.24608C32.4926 4.33631 32.8844 3.47967 32.9043 3.34022C32.9641 2.9617 32.725 2.53006 32.3398 2.33748C31.9746 2.15819 31.8684 2.15819 31.4102 2.35077ZM29.6172 5.54491C29.6172 5.55819 29.3648 6.0828 29.0527 6.71366C28.4484 7.93553 28.3953 8.14803 28.6078 8.56639C28.6676 8.69256 28.8203 8.86522 28.9465 8.94491C29.1922 9.11092 29.5906 9.13749 30.5336 9.03788C30.7926 9.01131 31.0117 9.00467 31.0117 9.0246C31.0117 9.04452 30.8391 9.3367 30.6332 9.68866C30.268 10.2863 30.248 10.3394 30.248 10.7512C30.248 10.9902 30.3078 11.6344 30.3742 12.1855C30.5203 13.3211 30.5402 15.1406 30.4207 16.1035C29.9758 19.643 28.475 22.7043 25.852 25.4402C24.3777 26.9742 22.6977 28.0433 20.6457 28.7473C16.6746 30.1019 11.1629 30.0754 6.44141 28.6609C6.02305 28.5348 5.72422 28.4219 5.77734 28.4019C5.83047 28.382 6.10273 28.3289 6.375 28.289C7.6832 28.0832 9.25703 27.4723 10.3727 26.7484C11.402 26.0711 12.8629 24.7496 13.0156 24.3379C13.1949 23.873 13.009 23.3484 12.5707 23.0961C12.4578 23.023 12.0195 22.9101 11.5945 22.8371C10.1469 22.5914 8.71914 22.1531 7.53711 21.5887C6.91289 21.2898 6.10937 20.8183 6.10937 20.7519C6.10937 20.732 6.30195 20.6324 6.54102 20.5262C7.26484 20.1941 8.10156 19.6562 8.24102 19.4305C8.40703 19.1582 8.40703 18.6269 8.24102 18.3746C8.06172 18.0957 7.90898 18.016 7.12539 17.757C5.51172 17.2191 4.48906 16.5883 3.55937 15.5523C3.14766 15.0875 2.52344 14.1445 2.52344 13.9785C2.52344 13.9387 2.88203 13.9121 3.50625 13.9121C4.12383 13.9121 4.56875 13.8789 4.72148 13.8258C5.21289 13.6531 5.51172 13.1152 5.38555 12.6305C5.3457 12.4844 5.1332 12.1523 4.91406 11.8801C4.4625 11.3289 3.98437 10.4125 3.80508 9.7617C3.66562 9.25702 3.63242 7.49725 3.75859 7.37108C3.81172 7.31796 3.95117 7.45741 4.26328 7.88241C7.19844 11.8336 11.6012 14.2375 16.6215 14.616C17.5312 14.6824 17.5578 14.6824 17.85 14.5297C18.275 14.3105 18.4145 14.0316 18.368 13.4805C18.2086 11.6078 18.2551 10.8176 18.5738 9.79491C19.4105 7.1453 21.5687 5.53827 24.132 5.66444C25.002 5.70428 25.5465 5.85702 26.3633 6.28866C27.1004 6.67381 27.1934 6.66717 28.4949 6.02303C29.4977 5.53163 29.6172 5.4785 29.6172 5.54491Z" fill="#BDBDBD"/>
</svg>
