<svg width="50" height="47" viewBox="0 0 50 47" fill="none" xmlns="http://www.w3.org/2000/svg">
<path d="M24.2445 8.44325L24.6898 9.31611L25.1352 8.44326C25.9323 6.88118 27.2769 4.75342 29.2809 3.09139L28.9617 2.70654L29.2809 3.09139C31.3614 1.36585 33.7064 0.5 36.2632 0.5C43.3963 0.5 48.8797 6.76171 48.8797 15.2573C48.8797 19.8127 47.1806 23.6644 44.1354 27.605C41.0778 31.5618 36.6939 35.5704 31.3586 40.4464L31.6723 40.7896L31.3586 40.4464C29.5492 42.1 27.4971 43.9755 25.3636 45.9764L25.3634 45.9766C25.1722 46.1561 24.9328 46.25 24.6898 46.25C24.4469 46.25 24.2075 46.1561 24.0164 45.9766L24.0161 45.9763C21.8837 43.9765 19.8324 42.1017 18.0247 40.4496L18.0223 40.4474L17.685 40.8165L18.0223 40.4474C12.6864 35.5709 8.30218 31.562 5.24436 27.6051C2.1991 23.6644 0.5 19.8127 0.5 15.2573C0.5 6.76171 5.98333 0.5 13.1165 0.5C15.6733 0.5 18.0183 1.36585 20.0988 3.09139L20.418 2.70654L20.0988 3.09139C22.1027 4.75342 23.4474 6.88108 24.2445 8.44325Z" fill="#F5F5F7" stroke="black"/>
</svg>
