<svg width="47" height="47" viewBox="0 0 47 47" fill="none" xmlns="http://www.w3.org/2000/svg">
<g clip-path="url(#clip0_270_493)">
<path d="M34.332 0C31.7952 0 29.4694 0.91059 27.4193 2.70654C25.4539 4.42832 24.1454 6.62133 23.375 8.216C22.6046 6.62123 21.2961 4.42832 19.3307 2.70654C17.2806 0.91059 14.9548 0 12.418 0C5.33863 0 0 6.55917 0 15.2573C0 24.6542 6.66032 31.0835 16.7432 40.8165C18.4554 42.4694 20.3962 44.3429 22.4133 46.341C22.6792 46.6048 23.0207 46.75 23.375 46.75C23.7293 46.75 24.0708 46.6048 24.3367 46.3411C26.354 44.3427 28.2947 42.4693 30.0079 40.8154C40.0897 31.0835 46.75 24.6542 46.75 15.2573C46.75 6.55917 41.4114 0 34.332 0Z" fill="#F5F5F7"/>
</g>
<defs>
<clipPath id="clip0_270_493">
<rect width="46.75" height="46.75" fill="white"/>
</clipPath>
</defs>
</svg>
