<svg width="34" height="34" viewBox="0 0 34 34" fill="none" xmlns="http://www.w3.org/2000/svg">
<path d="M5.57812 4.61521C2.93516 5.11326 0.903125 6.98592 0.179297 9.60232L0 10.2597V17V23.7402L0.179297 24.3976C0.909766 27.0406 2.95508 28.9066 5.64453 29.3914C6.43477 29.5308 27.4988 29.5308 28.2891 29.3914C30.9785 28.9066 33.0238 27.0406 33.7543 24.3976L33.9336 23.7402V17V10.2597L33.7543 9.60232C33.0238 6.95935 30.9785 5.09334 28.2891 4.60857C27.532 4.47576 6.29531 4.4824 5.57812 4.61521ZM28.6875 6.10271C30.5867 6.74021 31.8883 8.08162 32.4195 9.96091C32.5324 10.366 32.5391 10.7844 32.5391 17C32.5391 23.2156 32.5324 23.634 32.4195 24.039C31.8816 25.9316 30.5469 27.3062 28.6543 27.8972L28.1562 28.0566H16.9668H5.77734L5.2793 27.8972C3.70547 27.4058 2.52344 26.3832 1.86602 24.9554C1.36797 23.8797 1.39453 24.3711 1.39453 17C1.39453 10.7844 1.40117 10.366 1.51406 9.96091C2.05195 8.08162 3.4332 6.65388 5.24609 6.12263C5.50508 6.04295 5.80391 5.9699 5.91016 5.95662C6.02305 5.94334 11.0832 5.93006 17.166 5.9367L28.2227 5.94334L28.6875 6.10271Z" fill="#BDBDBD"/>
<path d="M12.8828 11.0832C12.8098 11.1164 12.6902 11.2094 12.6172 11.2891C12.4844 11.4351 12.4844 11.5414 12.4645 17.2258C12.4578 20.4066 12.4645 23.0828 12.4844 23.1625C12.5043 23.2488 12.6039 23.3949 12.6969 23.4812C13.082 23.8398 12.9426 23.9062 18.3414 20.7387C22.8437 18.1023 23.3019 17.8234 23.3883 17.6109C23.5078 17.3187 23.448 17.0465 23.2156 16.8539C22.8437 16.5418 13.3344 11.0234 13.175 11.0301C13.0887 11.0301 12.9559 11.0566 12.8828 11.0832ZM17.6641 15.1605C19.6031 16.2894 21.2234 17.2523 21.2699 17.2922C21.3297 17.3519 20.5262 17.8566 17.6441 19.5433C15.5988 20.7387 13.9121 21.7148 13.8922 21.7148C13.8656 21.7148 13.8457 19.7426 13.8457 17.332V12.9426L13.9984 13.0223C14.0781 13.0687 15.7316 14.0316 17.6641 15.1605Z" fill="#BDBDBD"/>
</svg>
